<svg xmlns="http://www.w3.org/2000/svg" width="30" height="30" class="wd-icon-chevron-2x-right-small wd-icon" focusable="false" role="presentation" viewBox="0 0 24 24"><g class="wd-icon-container"><path fill-rule="evenodd" d="M12.128 7.382l4.575 4.61-4.575 4.609a.44.44 0 0 0 0 .62l.635.64a.44.44 0 0 0 .622.002l.002-.002 5.482-5.523a.44.44 0 0 0 .127-.347.44.44 0 0 0-.127-.346L13.387 6.12a.44.44 0 0 0-.622-.002l-.002.002-.635.64a.44.44 0 0 0 0 .62zm-6 0l4.575 4.61L6.128 16.6a.44.44 0 0 0 0 .62l.635.64a.44.44 0 0 0 .622.002l.002-.002 5.482-5.523a.44.44 0 0 0 .127-.347.44.44 0 0 0-.127-.346L7.387 6.12a.44.44 0 0 0-.622-.002l-.002.002-.635.64a.44.44 0 0 0 0 .62z" class="wd-icon-fill" clip-rule="evenodd"></path></g></svg>