<svg xmlns="http://www.w3.org/2000/svg" xmlns:xlink="http://www.w3.org/1999/xlink" width="135" zoomAndPan="magnify" viewBox="0 0 101.25 74.999997" height="100" preserveAspectRatio="xMidYMid meet" version="1.0"><defs><clipPath id="2259dd467c"><path d="M 1.101562 1.121094 L 99.371094 1.121094 L 99.371094 73.824219 L 1.101562 73.824219 Z M 1.101562 1.121094 " clip-rule="nonzero"/></clipPath><clipPath id="b7f5519f87"><path d="M 19 25 L 33 25 L 33 51 L 19 51 Z M 19 25 " clip-rule="nonzero"/></clipPath><clipPath id="1ccec95e8e"><path d="M 20.789062 15.457031 L 84.660156 19.921875 L 82.269531 54.085938 L 18.402344 49.621094 Z M 20.789062 15.457031 " clip-rule="nonzero"/></clipPath><clipPath id="302fcf3906"><path d="M 20.789062 15.457031 L 84.660156 19.921875 L 82.269531 54.085938 L 18.402344 49.621094 Z M 20.789062 15.457031 " clip-rule="nonzero"/></clipPath><clipPath id="9ef1c376f5"><path d="M 32 25 L 50 25 L 50 44 L 32 44 Z M 32 25 " clip-rule="nonzero"/></clipPath><clipPath id="a9a20ce573"><path d="M 20.789062 15.457031 L 84.660156 19.921875 L 82.269531 54.085938 L 18.402344 49.621094 Z M 20.789062 15.457031 " clip-rule="nonzero"/></clipPath><clipPath id="ce58cdf579"><path d="M 20.789062 15.457031 L 84.660156 19.921875 L 82.269531 54.085938 L 18.402344 49.621094 Z M 20.789062 15.457031 " clip-rule="nonzero"/></clipPath><clipPath id="3a569ff72b"><path d="M 50 25 L 67 25 L 67 41 L 50 41 Z M 50 25 " clip-rule="nonzero"/></clipPath><clipPath id="7a667773c5"><path d="M 20.789062 15.457031 L 84.660156 19.921875 L 82.269531 54.085938 L 18.402344 49.621094 Z M 20.789062 15.457031 " clip-rule="nonzero"/></clipPath><clipPath id="ab6a4d6272"><path d="M 20.789062 15.457031 L 84.660156 19.921875 L 82.269531 54.085938 L 18.402344 49.621094 Z M 20.789062 15.457031 " clip-rule="nonzero"/></clipPath><clipPath id="f9b0a983b8"><path d="M 66 19 L 85 19 L 85 39 L 66 39 Z M 66 19 " clip-rule="nonzero"/></clipPath><clipPath id="040410caa3"><path d="M 20.789062 15.457031 L 84.660156 19.921875 L 82.269531 54.085938 L 18.402344 49.621094 Z M 20.789062 15.457031 " clip-rule="nonzero"/></clipPath><clipPath id="c8556fd71a"><path d="M 20.789062 15.457031 L 84.660156 19.921875 L 82.269531 54.085938 L 18.402344 49.621094 Z M 20.789062 15.457031 " clip-rule="nonzero"/></clipPath></defs><g clip-path="url(#2259dd467c)"><path fill="#ffffff" d="M 95.757812 7.1875 L 26.515625 7.1875 L 25.703125 8.914062 L 95.757812 8.914062 C 96.824219 8.914062 97.695312 9.785156 97.695312 10.851562 L 97.695312 60.867188 C 97.695312 61.933594 96.824219 62.800781 95.757812 62.800781 L 89.90625 62.800781 L 89.90625 63.617188 C 89.90625 63.925781 89.851562 64.230469 89.773438 64.527344 L 95.757812 64.527344 C 97.777344 64.527344 99.421875 62.886719 99.421875 60.867188 L 99.421875 10.851562 C 99.421875 8.832031 97.777344 7.1875 95.757812 7.1875 Z M 74.871094 63.707031 L 74.871094 62.800781 L 38.144531 62.800781 L 29.105469 72.019531 C 29.050781 72.074219 28.996094 72.101562 28.929688 72.101562 C 28.855469 72.101562 28.667969 72.054688 28.664062 71.847656 L 28.429688 62.800781 L 4.761719 62.800781 C 3.695312 62.800781 2.824219 61.933594 2.824219 60.867188 L 2.824219 12.34375 C 2.824219 10.453125 4.363281 8.914062 6.253906 8.914062 L 11.203125 8.914062 L 11.589844 7.1875 L 6.253906 7.1875 C 3.414062 7.1875 1.101562 9.5 1.101562 12.34375 L 1.101562 60.867188 C 1.101562 62.886719 2.742188 64.527344 4.761719 64.527344 L 26.75 64.527344 L 26.941406 71.894531 C 26.96875 72.976562 27.839844 73.824219 28.929688 73.824219 C 29.460938 73.824219 29.960938 73.613281 30.335938 73.226562 L 38.867188 64.527344 L 74.6875 64.527344 Z M 83.320312 71.617188 C 83.863281 71.617188 84.355469 71.304688 84.589844 70.816406 L 87.703125 64.214844 C 87.792969 64.03125 87.839844 63.824219 87.839844 63.617188 L 87.839844 60.777344 C 87.839844 60.003906 87.210938 59.378906 86.4375 59.378906 L 84.683594 59.378906 C 83.910156 59.378906 83.285156 60.003906 83.285156 60.777344 L 83.285156 63.777344 C 83.285156 63.882812 83.273438 63.984375 83.25 64.082031 L 81.953125 69.914062 C 81.761719 70.789062 82.425781 71.617188 83.320312 71.617188 Z M 75.609375 69.914062 L 76.90625 64.082031 C 76.925781 63.984375 76.9375 63.882812 76.9375 63.777344 L 76.9375 60.777344 C 76.9375 60.003906 77.566406 59.378906 78.339844 59.378906 L 80.09375 59.378906 C 80.867188 59.378906 81.492188 60.003906 81.492188 60.777344 L 81.492188 63.617188 C 81.492188 63.824219 81.449219 64.03125 81.359375 64.214844 L 78.242188 70.816406 C 78.011719 71.304688 77.519531 71.617188 76.976562 71.617188 C 76.082031 71.617188 75.414062 70.789062 75.609375 69.914062 Z M 20.425781 13.359375 C 20.96875 13.359375 21.460938 13.046875 21.695312 12.558594 L 24.808594 5.957031 C 24.898438 5.769531 24.945312 5.566406 24.945312 5.359375 L 24.945312 2.519531 C 24.945312 1.746094 24.316406 1.121094 23.542969 1.121094 L 21.789062 1.121094 C 21.015625 1.121094 20.390625 1.746094 20.390625 2.519531 L 20.390625 5.519531 C 20.390625 5.621094 20.378906 5.722656 20.355469 5.824219 L 19.058594 11.65625 C 18.867188 12.53125 19.53125 13.359375 20.425781 13.359375 Z M 12.714844 11.65625 L 14.011719 5.824219 C 14.035156 5.722656 14.042969 5.621094 14.042969 5.519531 L 14.042969 2.519531 C 14.042969 1.746094 14.671875 1.121094 15.445312 1.121094 L 17.199219 1.121094 C 17.972656 1.121094 18.597656 1.746094 18.597656 2.519531 L 18.597656 5.359375 C 18.597656 5.566406 18.554688 5.769531 18.464844 5.957031 L 15.347656 12.558594 C 15.117188 13.046875 14.625 13.359375 14.082031 13.359375 C 13.1875 13.359375 12.519531 12.53125 12.714844 11.65625 " fill-opacity="1" fill-rule="nonzero"/></g><g clip-path="url(#b7f5519f87)"><g clip-path="url(#1ccec95e8e)"><g clip-path="url(#302fcf3906)"><path fill="#ffffff" d="M 21.171875 45.617188 C 20.894531 45.597656 20.714844 45.484375 20.640625 45.273438 C 20.566406 45.078125 20.515625 44.875 20.480469 44.667969 C 20.285156 44.480469 20.238281 44.304688 20.335938 44.136719 C 20.472656 43.9375 20.652344 43.792969 20.878906 43.703125 C 21.191406 43.566406 21.515625 43.460938 21.851562 43.386719 C 22.234375 43.300781 22.613281 43.234375 22.980469 43.1875 C 23.3125 43.144531 23.648438 43.132812 23.984375 43.15625 C 24.199219 43.160156 24.40625 43.203125 24.609375 43.28125 C 24.625 42.464844 24.578125 41.648438 24.46875 40.839844 C 24.390625 40.285156 24.25 39.75 24.046875 39.230469 C 23.902344 38.851562 23.6875 38.515625 23.40625 38.222656 C 23.167969 37.988281 22.902344 37.789062 22.609375 37.628906 C 22.328125 37.480469 22.042969 37.347656 21.75 37.230469 C 21.453125 37.113281 21.167969 36.96875 20.898438 36.804688 C 20.605469 36.628906 20.347656 36.410156 20.125 36.152344 C 19.851562 35.824219 19.644531 35.457031 19.503906 35.050781 C 19.441406 34.671875 19.480469 34.304688 19.617188 33.945312 C 19.75 33.613281 19.941406 33.316406 20.183594 33.050781 C 20.429688 32.785156 20.699219 32.546875 20.996094 32.335938 C 21.292969 32.125 21.570312 31.921875 21.824219 31.734375 C 22.046875 31.570312 22.253906 31.394531 22.441406 31.195312 C 22.597656 31.054688 22.664062 30.882812 22.640625 30.675781 L 22.074219 26.816406 C 22.0625 26.675781 22.117188 26.570312 22.246094 26.503906 C 22.394531 26.40625 22.550781 26.320312 22.710938 26.242188 C 22.871094 26.164062 23.039062 26.101562 23.210938 26.054688 C 23.367188 26.015625 23.472656 25.992188 23.53125 25.984375 C 23.640625 26.71875 23.785156 27.464844 23.964844 28.222656 C 24.140625 28.976562 24.425781 29.6875 24.816406 30.355469 C 25.070312 30.328125 25.324219 30.3125 25.578125 30.3125 C 25.949219 30.300781 26.347656 30.292969 26.765625 30.285156 C 27.183594 30.277344 27.578125 30.269531 27.953125 30.261719 C 28.324219 30.25 28.585938 30.242188 28.738281 30.238281 C 28.769531 30.246094 28.839844 30.269531 28.941406 30.296875 C 29.050781 30.332031 29.15625 30.367188 29.257812 30.414062 C 29.363281 30.457031 29.464844 30.496094 29.5625 30.527344 C 29.628906 30.546875 29.695312 30.574219 29.757812 30.613281 C 29.878906 30.851562 29.976562 31.101562 30.050781 31.359375 C 30.085938 31.480469 30.078125 31.59375 30.03125 31.707031 C 29.980469 31.820312 29.902344 31.902344 29.792969 31.960938 C 29.558594 32.117188 29.109375 32.207031 28.449219 32.226562 C 27.785156 32.246094 26.8125 32.152344 25.53125 31.945312 C 25.339844 31.980469 25.234375 32.09375 25.214844 32.289062 C 25.167969 32.511719 25.148438 32.734375 25.152344 32.960938 C 25.15625 33.1875 25.179688 33.40625 25.21875 33.628906 C 25.253906 33.828125 25.273438 33.9375 25.277344 33.953125 C 25.28125 33.996094 25.296875 34.078125 25.324219 34.195312 C 25.347656 34.316406 25.375 34.433594 25.398438 34.550781 C 25.421875 34.671875 25.449219 34.785156 25.472656 34.898438 C 25.496094 35.007812 25.511719 35.09375 25.519531 35.152344 C 25.691406 35.160156 25.976562 35.160156 26.378906 35.152344 C 26.785156 35.148438 27.238281 35.160156 27.75 35.191406 C 28.257812 35.222656 28.792969 35.285156 29.355469 35.367188 C 29.890625 35.449219 30.417969 35.574219 30.933594 35.742188 C 31.386719 35.886719 31.796875 36.109375 32.164062 36.410156 C 32.5 36.683594 32.695312 37.03125 32.753906 37.457031 C 32.882812 38.234375 32.804688 38.992188 32.515625 39.726562 C 32.230469 40.425781 31.839844 41.058594 31.339844 41.628906 C 30.824219 42.21875 30.261719 42.757812 29.65625 43.25 C 29.03125 43.753906 28.441406 44.214844 27.875 44.632812 L 27.980469 45.351562 C 28.03125 45.679688 28.101562 46 28.203125 46.316406 C 28.304688 46.628906 28.414062 46.941406 28.535156 47.25 C 28.65625 47.5625 28.769531 47.875 28.867188 48.1875 C 28.96875 48.503906 29.042969 48.824219 29.089844 49.152344 C 29.15625 49.464844 29.132812 49.769531 29.019531 50.066406 C 28.914062 50.289062 28.652344 50.429688 28.234375 50.492188 C 28.097656 50.515625 27.960938 50.523438 27.824219 50.515625 C 27.730469 50.507812 27.652344 50.476562 27.582031 50.414062 C 27.496094 50.335938 27.433594 50.242188 27.390625 50.132812 C 27.332031 50.003906 27.25 49.835938 27.144531 49.621094 C 27.074219 49.476562 26.96875 49.234375 26.816406 48.890625 C 26.667969 48.546875 26.511719 48.175781 26.34375 47.78125 C 26.179688 47.382812 26.03125 47.011719 25.894531 46.664062 C 25.796875 46.421875 25.710938 46.175781 25.636719 45.925781 Z M 21.472656 34.71875 C 21.539062 35.164062 21.722656 35.453125 22.019531 35.574219 C 22.378906 35.707031 22.746094 35.738281 23.121094 35.664062 L 22.804688 33.492188 C 22.632812 33.515625 22.46875 33.554688 22.304688 33.609375 C 22.140625 33.664062 21.992188 33.742188 21.859375 33.847656 C 21.730469 33.949219 21.625 34.070312 21.546875 34.214844 C 21.464844 34.371094 21.4375 34.539062 21.472656 34.71875 Z M 25.746094 37.457031 C 25.867188 38.285156 26.035156 39.105469 26.253906 39.914062 C 26.476562 40.71875 26.742188 41.507812 27.050781 42.28125 L 27.273438 42.25 C 27.679688 42.179688 28.054688 42.027344 28.398438 41.796875 C 28.800781 41.539062 29.160156 41.234375 29.476562 40.882812 C 29.796875 40.539062 30.054688 40.15625 30.261719 39.738281 C 30.449219 39.378906 30.519531 38.996094 30.472656 38.59375 C 30.394531 38.070312 30.175781 37.710938 29.820312 37.511719 C 29.429688 37.300781 29.015625 37.1875 28.578125 37.167969 C 28.078125 37.136719 27.582031 37.164062 27.089844 37.246094 C 26.566406 37.332031 26.117188 37.402344 25.746094 37.457031 Z M 25.746094 37.457031 " fill-opacity="1" fill-rule="nonzero"/></g></g></g><g clip-path="url(#9ef1c376f5)"><g clip-path="url(#a9a20ce573)"><g clip-path="url(#ce58cdf579)"><path fill="#ffffff" d="M 32.570312 32.628906 C 32.5 32.125 32.480469 31.621094 32.511719 31.113281 C 32.535156 30.601562 32.640625 30.101562 32.828125 29.625 C 33.011719 29.164062 33.285156 28.769531 33.652344 28.4375 C 34.0625 28.085938 34.535156 27.878906 35.074219 27.816406 C 35.375 27.773438 35.667969 27.800781 35.957031 27.90625 C 36.25 28.007812 36.511719 28.164062 36.746094 28.375 C 36.984375 28.582031 37.183594 28.824219 37.34375 29.097656 C 37.5 29.351562 37.601562 29.621094 37.648438 29.914062 C 37.703125 30.359375 37.628906 30.78125 37.421875 31.183594 C 37.207031 31.632812 36.933594 32.046875 36.59375 32.414062 C 36.261719 32.789062 35.878906 33.109375 35.453125 33.375 C 35.082031 33.617188 34.675781 33.773438 34.242188 33.847656 C 33.84375 33.917969 33.476562 33.832031 33.148438 33.597656 C 32.8125 33.359375 32.621094 33.039062 32.570312 32.628906 Z M 35.734375 29.507812 C 35.277344 29.492188 34.820312 29.511719 34.367188 29.570312 C 34.007812 29.621094 33.765625 29.726562 33.636719 29.882812 C 33.503906 30.039062 33.492188 30.261719 33.59375 30.542969 C 33.695312 30.824219 33.941406 31.191406 34.328125 31.636719 C 34.828125 31.824219 35.210938 31.894531 35.46875 31.847656 C 35.71875 31.820312 35.894531 31.691406 35.996094 31.460938 C 36.09375 31.1875 36.109375 30.910156 36.046875 30.628906 C 35.976562 30.246094 35.871094 29.871094 35.734375 29.507812 Z M 39.066406 41.433594 C 39.171875 40.824219 39.234375 40.210938 39.253906 39.59375 C 39.296875 38.75 39.351562 37.785156 39.410156 36.699219 C 39.472656 35.613281 39.554688 34.476562 39.65625 33.292969 C 39.757812 32.109375 39.898438 31.003906 40.085938 29.96875 C 40.238281 29.046875 40.472656 28.144531 40.785156 27.265625 C 41.070312 26.496094 41.441406 25.996094 41.894531 25.761719 C 42.566406 25.664062 42.953125 25.957031 43.054688 26.644531 C 43.0625 26.917969 43.058594 27.367188 43.035156 27.988281 C 43.011719 28.609375 42.972656 29.320312 42.914062 30.125 C 42.855469 30.925781 42.78125 31.796875 42.691406 32.734375 C 42.597656 33.671875 42.492188 34.617188 42.375 35.574219 C 42.253906 36.53125 42.125 37.460938 41.980469 38.359375 C 41.839844 39.257812 41.683594 40.066406 41.511719 40.785156 C 41.375 41.398438 41.199219 41.996094 40.976562 42.582031 C 40.785156 43.0625 40.589844 43.359375 40.382812 43.472656 C 40.179688 43.585938 39.964844 43.488281 39.746094 43.175781 C 39.523438 42.867188 39.296875 42.285156 39.066406 41.433594 Z M 43.253906 38.59375 C 43.164062 38.105469 43.25 37.652344 43.511719 37.230469 C 43.765625 36.832031 44.09375 36.5 44.488281 36.238281 C 44.894531 35.960938 45.332031 35.753906 45.804688 35.609375 C 46.21875 35.476562 46.644531 35.375 47.078125 35.308594 C 47.851562 35.195312 48.425781 35.273438 48.796875 35.546875 C 49.164062 35.824219 49.402344 36.339844 49.515625 37.101562 C 49.683594 38.253906 49.5 39.21875 48.957031 39.992188 C 48.414062 40.765625 47.550781 41.238281 46.371094 41.414062 C 46.011719 41.460938 45.671875 41.402344 45.347656 41.242188 C 44.988281 41.074219 44.664062 40.851562 44.378906 40.570312 C 44.085938 40.289062 43.835938 39.96875 43.632812 39.617188 C 43.441406 39.300781 43.3125 38.960938 43.253906 38.59375 Z M 47.589844 37.089844 C 47.132812 37.074219 46.679688 37.09375 46.226562 37.152344 C 45.867188 37.203125 45.621094 37.308594 45.492188 37.464844 C 45.363281 37.621094 45.347656 37.839844 45.453125 38.125 C 45.554688 38.40625 45.796875 38.765625 46.179688 39.195312 C 46.683594 39.382812 47.0625 39.457031 47.324219 39.417969 C 47.582031 39.398438 47.757812 39.269531 47.851562 39.03125 C 47.949219 38.757812 47.964844 38.480469 47.902344 38.199219 C 47.832031 37.820312 47.726562 37.449219 47.589844 37.089844 Z M 47.589844 37.089844 " fill-opacity="1" fill-rule="nonzero"/></g></g></g><g clip-path="url(#3a569ff72b)"><g clip-path="url(#7a667773c5)"><g clip-path="url(#ab6a4d6272)"><path fill="#ffffff" d="M 55.023438 35.445312 C 54.960938 35.144531 54.882812 34.847656 54.789062 34.554688 C 54.652344 34.105469 54.449219 33.515625 54.171875 32.777344 C 53.273438 33.199219 52.539062 33.425781 51.96875 33.457031 C 51.402344 33.484375 50.988281 33.40625 50.730469 33.214844 C 50.457031 33.027344 50.359375 32.777344 50.4375 32.457031 C 50.523438 32.09375 50.722656 31.808594 51.03125 31.601562 C 51.371094 31.34375 51.847656 31.160156 52.464844 31.046875 C 53.078125 30.933594 53.828125 30.964844 54.710938 31.140625 C 54.773438 30.980469 54.796875 30.816406 54.785156 30.648438 C 54.789062 30.402344 54.789062 30.121094 54.789062 29.800781 C 54.789062 29.480469 54.789062 29.144531 54.789062 28.792969 C 54.789062 28.441406 54.789062 28.121094 54.785156 27.832031 C 54.78125 27.542969 54.777344 27.292969 54.777344 27.085938 C 54.78125 26.878906 54.800781 26.773438 54.847656 26.769531 C 54.96875 26.675781 55.105469 26.609375 55.253906 26.570312 C 55.441406 26.511719 55.625 26.460938 55.804688 26.421875 C 56.046875 26.355469 56.289062 26.304688 56.539062 26.265625 L 57.367188 29.902344 L 59.050781 29.65625 C 59.046875 29.625 59.035156 29.496094 59.015625 29.269531 C 59 29.042969 58.984375 28.765625 58.976562 28.441406 C 58.964844 28.113281 58.964844 27.757812 58.980469 27.375 C 58.988281 27.019531 59.023438 26.667969 59.085938 26.316406 C 59.136719 26.027344 59.222656 25.753906 59.34375 25.488281 C 59.429688 25.269531 59.589844 25.136719 59.824219 25.097656 C 59.882812 25.089844 59.972656 25.078125 60.09375 25.070312 C 60.210938 25.058594 60.324219 25.0625 60.441406 25.074219 C 60.546875 25.089844 60.648438 25.125 60.742188 25.179688 C 60.84375 25.246094 60.898438 25.34375 60.910156 25.464844 L 61.402344 28.828125 C 61.628906 28.871094 61.859375 28.898438 62.089844 28.910156 C 62.375 28.929688 62.691406 28.941406 63.035156 28.945312 C 63.378906 28.945312 63.726562 28.953125 64.078125 28.960938 C 64.433594 28.972656 64.757812 28.992188 65.050781 29.027344 C 65.300781 29.050781 65.546875 29.101562 65.785156 29.179688 C 65.976562 29.253906 66.082031 29.347656 66.101562 29.46875 C 66.042969 29.808594 65.863281 30.070312 65.5625 30.246094 C 65.238281 30.445312 64.894531 30.609375 64.535156 30.738281 C 64.152344 30.878906 63.765625 31.011719 63.378906 31.136719 C 63.050781 31.234375 62.742188 31.382812 62.460938 31.582031 C 62.234375 31.738281 62.121094 31.953125 62.121094 32.226562 C 62.121094 32.488281 62.324219 32.824219 62.738281 33.238281 C 62.949219 33.203125 63.15625 33.15625 63.359375 33.097656 C 63.609375 33.03125 63.867188 32.964844 64.128906 32.894531 C 64.394531 32.824219 64.660156 32.769531 64.929688 32.730469 C 65.175781 32.691406 65.417969 32.6875 65.660156 32.714844 C 65.871094 32.738281 66.058594 32.820312 66.222656 32.953125 C 66.398438 33.113281 66.496094 33.3125 66.519531 33.550781 C 66.554688 33.792969 66.4375 34.007812 66.167969 34.199219 C 65.863281 34.410156 65.542969 34.585938 65.203125 34.730469 C 64.84375 34.886719 64.476562 35.023438 64.105469 35.144531 C 63.75 35.257812 63.492188 35.347656 63.332031 35.417969 C 63.417969 35.679688 63.515625 35.996094 63.632812 36.371094 C 63.746094 36.726562 63.820312 37.09375 63.851562 37.472656 C 63.886719 37.808594 63.839844 38.136719 63.710938 38.453125 C 63.585938 38.746094 63.3125 38.925781 62.894531 38.984375 C 62.597656 38.949219 62.347656 38.820312 62.140625 38.605469 C 61.960938 38.402344 61.816406 38.179688 61.699219 37.9375 C 61.578125 37.6875 61.46875 37.441406 61.375 37.203125 C 61.289062 36.980469 61.152344 36.789062 60.96875 36.632812 C 60.757812 36.476562 60.519531 36.417969 60.253906 36.453125 C 59.953125 36.472656 59.546875 36.613281 59.035156 36.871094 C 59.074219 37.140625 59.121094 37.453125 59.171875 37.804688 C 59.222656 38.144531 59.238281 38.484375 59.21875 38.828125 C 59.207031 39.140625 59.113281 39.429688 58.945312 39.691406 C 58.746094 39.964844 58.476562 40.117188 58.140625 40.140625 C 58.003906 40.164062 57.835938 40.074219 57.632812 39.875 C 57.394531 39.640625 57.175781 39.394531 56.972656 39.132812 C 56.738281 38.839844 56.5 38.550781 56.261719 38.265625 C 56.058594 38.019531 55.832031 37.789062 55.589844 37.585938 C 54.882812 37.628906 54.175781 37.628906 53.46875 37.585938 C 52.96875 37.546875 52.617188 37.480469 52.421875 37.386719 C 52.222656 37.292969 52.152344 37.175781 52.210938 37.039062 C 52.292969 36.867188 52.40625 36.726562 52.558594 36.609375 C 53.015625 36.285156 53.835938 35.894531 55.023438 35.445312 Z M 57.6875 33.773438 C 57.695312 33.894531 57.75 33.992188 57.84375 34.070312 C 57.933594 34.136719 58.03125 34.179688 58.136719 34.199219 C 58.25 34.222656 58.359375 34.226562 58.472656 34.21875 C 58.585938 34.210938 58.679688 34.199219 58.753906 34.1875 C 58.898438 34.164062 59.039062 34.132812 59.175781 34.09375 C 59.335938 34.046875 59.492188 33.988281 59.644531 33.921875 C 59.789062 33.855469 59.910156 33.765625 60.015625 33.648438 C 60.117188 33.527344 60.15625 33.386719 60.125 33.230469 C 60.082031 32.910156 59.960938 32.621094 59.757812 32.367188 C 59.558594 32.105469 59.296875 32.007812 58.96875 32.070312 C 58.78125 32.101562 58.609375 32.167969 58.449219 32.273438 C 58.28125 32.382812 58.136719 32.519531 58.019531 32.679688 C 57.894531 32.84375 57.804688 33.023438 57.742188 33.214844 C 57.679688 33.394531 57.660156 33.582031 57.6875 33.773438 Z M 57.6875 33.773438 " fill-opacity="1" fill-rule="nonzero"/></g></g></g><g clip-path="url(#f9b0a983b8)"><g clip-path="url(#040410caa3)"><g clip-path="url(#c8556fd71a)"><path fill="#ffffff" d="M 66.160156 31.429688 C 65.949219 30.03125 66.015625 28.644531 66.363281 27.273438 C 66.695312 25.953125 67.25 24.730469 68.035156 23.617188 C 68.820312 22.507812 69.792969 21.59375 70.945312 20.875 C 72.136719 20.125 73.429688 19.652344 74.824219 19.457031 C 75.816406 19.320312 76.796875 19.386719 77.761719 19.65625 C 78.777344 19.925781 79.726562 20.347656 80.605469 20.921875 C 81.480469 21.492188 82.234375 22.195312 82.863281 23.03125 C 83.484375 23.839844 83.867188 24.75 84.019531 25.757812 C 84.140625 26.628906 84.121094 27.5 83.96875 28.367188 C 83.808594 29.292969 83.539062 30.1875 83.160156 31.050781 C 82.769531 31.9375 82.292969 32.773438 81.730469 33.5625 C 81.167969 34.355469 80.527344 35.074219 79.800781 35.722656 C 79.105469 36.351562 78.34375 36.886719 77.519531 37.332031 C 76.738281 37.753906 75.90625 38.03125 75.03125 38.164062 C 73.984375 38.324219 72.957031 38.257812 71.941406 37.964844 C 70.957031 37.683594 70.058594 37.234375 69.246094 36.609375 C 68.433594 35.980469 67.757812 35.230469 67.21875 34.351562 C 66.664062 33.453125 66.308594 32.476562 66.160156 31.429688 Z M 68.066406 31.148438 C 68.179688 31.984375 68.457031 32.757812 68.902344 33.476562 C 69.320312 34.152344 69.851562 34.71875 70.5 35.175781 C 71.152344 35.632812 71.867188 35.945312 72.644531 36.109375 C 73.453125 36.285156 74.265625 36.3125 75.082031 36.1875 C 75.582031 36.117188 76.054688 35.96875 76.507812 35.75 C 76.949219 35.53125 77.355469 35.261719 77.726562 34.941406 C 78.109375 34.609375 78.453125 34.242188 78.757812 33.839844 C 79.074219 33.421875 79.355469 32.984375 79.605469 32.523438 C 79.425781 32.375 79.238281 32.238281 79.042969 32.113281 C 78.894531 32.015625 78.738281 31.9375 78.570312 31.871094 C 78.421875 31.816406 78.269531 31.785156 78.113281 31.78125 C 77.933594 31.773438 77.753906 31.785156 77.578125 31.8125 C 77.296875 31.851562 77.027344 31.921875 76.761719 32.023438 C 76.5 32.125 76.246094 32.230469 75.996094 32.34375 C 75.746094 32.457031 75.484375 32.5625 75.21875 32.664062 C 74.941406 32.765625 74.660156 32.835938 74.367188 32.878906 C 74.027344 32.925781 73.691406 32.914062 73.355469 32.84375 C 72.992188 32.777344 72.644531 32.65625 72.316406 32.480469 C 71.988281 32.3125 71.703125 32.085938 71.460938 31.804688 C 71.222656 31.53125 71.074219 31.214844 71.023438 30.851562 C 70.9375 30.257812 71.003906 29.683594 71.226562 29.125 C 71.449219 28.558594 71.765625 28.046875 72.171875 27.589844 C 72.582031 27.128906 73.054688 26.742188 73.59375 26.429688 C 74.085938 26.128906 74.617188 25.933594 75.1875 25.839844 C 75.785156 25.753906 76.269531 25.789062 76.636719 25.949219 C 76.996094 26.101562 77.296875 26.332031 77.539062 26.640625 C 77.777344 26.945312 77.976562 27.277344 78.132812 27.628906 C 78.285156 27.976562 78.46875 28.304688 78.6875 28.613281 C 78.894531 28.910156 79.15625 29.144531 79.46875 29.324219 C 79.777344 29.5 80.191406 29.550781 80.714844 29.472656 C 81.105469 29.433594 81.425781 29.261719 81.671875 28.953125 C 81.898438 28.652344 82.042969 28.3125 82.105469 27.941406 C 82.179688 27.53125 82.203125 27.121094 82.175781 26.703125 C 82.152344 26.273438 82.109375 25.871094 82.054688 25.496094 C 81.949219 24.785156 81.644531 24.167969 81.144531 23.648438 C 80.617188 23.089844 80.011719 22.632812 79.328125 22.277344 C 78.625 21.90625 77.882812 21.640625 77.101562 21.484375 C 76.414062 21.324219 75.71875 21.289062 75.015625 21.378906 C 73.910156 21.535156 72.894531 21.929688 71.96875 22.558594 C 71.050781 23.175781 70.273438 23.9375 69.636719 24.847656 C 68.996094 25.761719 68.539062 26.761719 68.257812 27.84375 C 67.964844 28.933594 67.902344 30.035156 68.066406 31.148438 Z M 76.011719 27.53125 C 75.046875 27.839844 74.3125 28.164062 73.804688 28.507812 C 73.296875 28.847656 72.960938 29.179688 72.796875 29.503906 C 72.625 29.785156 72.597656 30.078125 72.71875 30.382812 C 72.835938 30.65625 73.027344 30.863281 73.289062 31 C 73.578125 31.148438 73.886719 31.207031 74.207031 31.171875 C 74.578125 31.140625 74.898438 31 75.179688 30.757812 C 75.523438 30.441406 75.769531 30.0625 75.914062 29.617188 C 76.109375 29.109375 76.1875 28.429688 76.15625 27.578125 Z M 76.011719 27.53125 " fill-opacity="1" fill-rule="nonzero"/></g></g></g></svg>