<svg width="40" height="41" viewBox="0 0 40 41" fill="none" xmlns="http://www.w3.org/2000/svg">
<g clip-path="url(#clip0_1996_76198)">
<path d="M19 9C19 8.17157 19.6716 7.5 20.5 7.5C21.3284 7.5 22 8.17157 22 9V34.5H19V9Z" fill="#B7876C"/>
<path d="M19 23V20V19H23L19 23Z" fill="#8B6149"/>
<rect x="3" y="10.5" width="34" height="11" rx="2" fill="white"/>
<path d="M12.3145 18.5H10.4468V13.1973H12.3364C13.9331 13.1973 14.9072 14.1934 14.9072 15.8413C14.9072 17.5039 13.9331 18.5 12.3145 18.5ZM11.5454 17.5552H12.2705C13.2812 17.5552 13.8086 17.0278 13.8086 15.8413C13.8086 14.6621 13.2812 14.1421 12.2778 14.1421H11.5454V17.5552ZM20.5615 15.8486C20.5615 17.5771 19.4849 18.5732 18.0859 18.5732C16.6724 18.5732 15.603 17.5698 15.603 15.8486C15.603 14.1201 16.6724 13.124 18.0859 13.124C19.4849 13.124 20.5615 14.1201 20.5615 15.8486ZM19.4409 15.8486C19.4409 14.7134 18.9062 14.0981 18.0859 14.0981C17.2656 14.0981 16.7236 14.7134 16.7236 15.8486C16.7236 16.9839 17.2656 17.5991 18.0859 17.5991C18.9062 17.5991 19.4409 16.9839 19.4409 15.8486ZM25.7764 13.1973V18.5H24.8242L22.4951 15.1309H22.4512V18.5H21.3525V13.1973H22.3193L24.6338 16.5664H24.6851V13.1973H25.7764ZM26.6699 18.5V13.1973H30.2295V14.1055H27.7686V15.3945H30.0464V16.3027H27.7686V17.5918H30.2368V18.5H26.6699Z" fill="#48AC3F"/>
<ellipse cx="20.5" cy="40.5" rx="16.5" ry="7" fill="#7C553E"/>
</g>
<defs>
<clipPath id="clip0_1996_76198">
<rect width="40" height="40" fill="white" transform="translate(0 0.5)"/>
</clipPath>
</defs>
</svg>
