<svg xmlns="http://www.w3.org/2000/svg" width="24" height="24" class="wd-icon-chevron-2x-left-small wd-icon" focusable="false" role="presentation" viewBox="0 0 24 24"><g class="wd-icon-container"><path fill-rule="evenodd" d="M11.87 16.602l-4.576-4.606 4.575-4.607a.44.44 0 0 0 0-.62l-.635-.64a.44.44 0 0 0-.622-.001l-.002.002-5.482 5.52a.44.44 0 0 0-.127.346.439.439 0 0 0 .127.346l5.482 5.52a.44.44 0 0 0 .622.001l.002-.002.635-.64a.44.44 0 0 0 0-.62zm6 0l-4.576-4.606 4.575-4.607a.44.44 0 0 0 0-.62l-.635-.64a.44.44 0 0 0-.622-.001l-.002.002-5.482 5.52a.44.44 0 0 0-.127.346.439.439 0 0 0 .127.346l5.482 5.52a.44.44 0 0 0 .622.001l.002-.002.635-.64a.44.44 0 0 0 0-.62z" class="wd-icon-fill" clip-rule="evenodd"></path></g></svg>