<svg
                  width="currnet"
                  height="current"
                  viewBox="0 0 200 78"
                  fill="none"
                  xmlns="http://www.w3.org/2000/svg"
                  class="OpenAdmissions_logo__2h9P6"
                >
                  <path
                    fill-rule="evenodd"
                    clip-rule="evenodd"
                    d="M130.384 3.427L97.9805 45.1074H112.141L104.052 75.6758L136.455 33.9955H122.294L130.384 3.427Z"
                    fill="#A3E635"
                  ></path>
                  <path
                    d="M17.9832 10.4211H36.3798L34.7951 20.7644H18.2588C17.2253 20.7644 16.2607 21.6976 16.054 22.8641L14.6759 31.6521C14.4692 32.8186 15.1582 33.7518 16.1918 33.7518H23.5642C28.594 33.7518 32.039 38.3402 31.1433 44.0951L29.0763 57.0826C28.1806 62.7597 23.3575 67.4259 18.3277 67.4259H0L1.58473 57.0826H18.0521C19.0856 57.0826 20.0502 56.1493 20.2569 54.9828L21.6349 46.1949C21.8417 45.0283 21.1526 44.0951 20.1191 44.0951H12.7467C7.71692 44.0951 4.34077 39.429 5.16758 33.7518L7.23462 20.7644C8.13033 15.0094 12.9534 10.4211 17.9832 10.4211Z"
                    fill="white"
                  ></path>
                  <path
                    d="M45.4774 77.7692H36.3825L46.8554 10.4211H65.252C70.2818 10.4211 73.658 15.0094 72.7623 20.7644L67.1124 57.0826C66.2167 62.7597 61.3936 67.4259 56.3638 67.4259H47.1311L45.4774 77.7692ZM61.7381 20.7644H54.3657L48.7158 57.0826H56.0882C57.1217 57.0826 58.0863 56.1493 58.293 54.9828L63.3228 22.8641C63.4606 21.6976 62.7716 20.7644 61.7381 20.7644Z"
                    fill="white"
                  ></path>
                  <path
                    d="M83.5135 67.4259H74.4186L81.6532 20.7644C82.5489 15.0094 87.372 10.4211 92.4018 10.4211H99.2919L97.7072 20.7644H92.6774C91.6439 20.7644 90.6792 21.6976 90.4725 22.8641L83.5135 67.4259Z"
                    fill="white"
                  ></path>
                  <path
                    d="M165.96 10.4211C170.99 10.4211 174.435 15.0094 173.539 20.7644L166.236 67.4259H157.072L164.031 22.8641C164.238 21.6976 163.549 20.7644 162.515 20.7644H155.143L147.839 67.4259H138.744L147.564 10.4211H165.96Z"
                    fill="white"
                  ></path>
                  <path
                    d="M186.151 54.9828C186.013 56.1493 186.702 57.0826 187.736 57.0826H192.765L191.112 67.4259H183.119C178.71 67.4259 175.885 62.7597 176.78 57.0826L185.6 0H194.764L193.11 10.4211H200L198.415 20.7644H191.525L186.151 54.9828Z"
                    fill="white"
                  ></path>
</svg>