<svg xmlns="http://www.w3.org/2000/svg" xmlns:xlink="http://www.w3.org/1999/xlink" width="current" zoomAndPan="magnify" viewBox="0 0 150 60" height="current" preserveAspectRatio="xMidYMid meet" version="1.0"><defs><filter x="0%" y="0%" width="100%" height="100%" id="a866117b8e"><feColorMatrix values="0 0 0 0 1 0 0 0 0 1 0 0 0 0 1 0 0 0 1 0" color-interpolation-filters="sRGB"/></filter><g/><clipPath id="94ce9bb6be"><path d="M 7 1 L 46 1 L 46 40 L 7 40 Z M 7 1 " clip-rule="nonzero"/></clipPath><clipPath id="5f0e005ee0"><path d="M -6.992188 10.679688 L 45.617188 -9.230469 L 60.484375 30.050781 L 7.875 49.960938 Z M -6.992188 10.679688 " clip-rule="nonzero"/></clipPath><clipPath id="15e742e091"><path d="M -6.992188 10.679688 L 45.617188 -9.230469 L 60.484375 30.050781 L 7.875 49.960938 Z M -6.992188 10.679688 " clip-rule="nonzero"/></clipPath><clipPath id="8ddee1e8ac"><path d="M 2 0 L 43 0 L 43 23 L 2 23 Z M 2 0 " clip-rule="nonzero"/></clipPath><clipPath id="1d908a3167"><path d="M -6.992188 10.679688 L 45.617188 -9.230469 L 60.484375 30.050781 L 7.875 49.960938 Z M -6.992188 10.679688 " clip-rule="nonzero"/></clipPath><clipPath id="a5a1d46657"><path d="M -6.992188 10.679688 L 45.617188 -9.230469 L 60.484375 30.050781 L 7.875 49.960938 Z M -6.992188 10.679688 " clip-rule="nonzero"/></clipPath><mask id="be46f05434"><g filter="url(#a866117b8e)"><rect x="-15" width="180" fill="#000000" y="-6" height="72" fill-opacity="0.1"/></g></mask><clipPath id="3b2d9f3403"><path d="M 5 1 L 40.480469 1 L 40.480469 22.800781 L 5 22.800781 Z M 5 1 " clip-rule="nonzero"/></clipPath><clipPath id="e82d471208"><path d="M -8.992188 10.679688 L 43.617188 -9.230469 L 58.484375 30.050781 L 5.875 49.960938 Z M -8.992188 10.679688 " clip-rule="nonzero"/></clipPath><clipPath id="a43739460b"><path d="M -8.992188 10.679688 L 43.617188 -9.230469 L 58.484375 30.050781 L 5.875 49.960938 Z M -8.992188 10.679688 " clip-rule="nonzero"/></clipPath><clipPath id="6c083a08d7"><rect x="0" width="41" y="0" height="23"/></clipPath><clipPath id="5dca59dfdd"><path d="M 12 19 L 51 19 L 51 45 L 12 45 Z M 12 19 " clip-rule="nonzero"/></clipPath><clipPath id="2c3ee91f8e"><path d="M -6.992188 10.679688 L 45.617188 -9.230469 L 60.484375 30.050781 L 7.875 49.960938 Z M -6.992188 10.679688 " clip-rule="nonzero"/></clipPath><clipPath id="7dbdf2eeab"><path d="M -6.992188 10.679688 L 45.617188 -9.230469 L 60.484375 30.050781 L 7.875 49.960938 Z M -6.992188 10.679688 " clip-rule="nonzero"/></clipPath><mask id="cce49deb15"><g filter="url(#a866117b8e)"><rect x="-15" width="180" fill="#000000" y="-6" height="72" fill-opacity="0.2"/></g></mask><clipPath id="ff927c655e"><path d="M 0.238281 1 L 34 1 L 34 21 L 0.238281 21 Z M 0.238281 1 " clip-rule="nonzero"/></clipPath><clipPath id="35c0cba62a"><path d="M -18.992188 -8.320312 L 33.617188 -28.230469 L 48.484375 11.050781 L -4.125 30.960938 Z M -18.992188 -8.320312 " clip-rule="nonzero"/></clipPath><clipPath id="ffa4ef0f70"><path d="M -18.992188 -8.320312 L 33.617188 -28.230469 L 48.484375 11.050781 L -4.125 30.960938 Z M -18.992188 -8.320312 " clip-rule="nonzero"/></clipPath><clipPath id="54d306f794"><rect x="0" width="39" y="0" height="26"/></clipPath><clipPath id="0027d9e5da"><path d="M 16 25 L 48 25 L 48 44 L 16 44 Z M 16 25 " clip-rule="nonzero"/></clipPath><clipPath id="5434ef03df"><path d="M -6.992188 10.679688 L 45.617188 -9.230469 L 60.484375 30.050781 L 7.875 49.960938 Z M -6.992188 10.679688 " clip-rule="nonzero"/></clipPath><clipPath id="2f64478e62"><path d="M -6.992188 10.679688 L 45.617188 -9.230469 L 60.484375 30.050781 L 7.875 49.960938 Z M -6.992188 10.679688 " clip-rule="nonzero"/></clipPath><mask id="f3d967c20a"><g filter="url(#a866117b8e)"><rect x="-15" width="180" fill="#000000" y="-6" height="72" fill-opacity="0.08"/></g></mask><clipPath id="ba7b249e55"><path d="M 0.800781 1 L 29 1 L 29 15 L 0.800781 15 Z M 0.800781 1 " clip-rule="nonzero"/></clipPath><clipPath id="b369aaf3da"><path d="M -22.992188 -14.320312 L 29.617188 -34.230469 L 44.484375 5.050781 L -8.125 24.960938 Z M -22.992188 -14.320312 " clip-rule="nonzero"/></clipPath><clipPath id="04684fcdeb"><path d="M -22.992188 -14.320312 L 29.617188 -34.230469 L 44.484375 5.050781 L -8.125 24.960938 Z M -22.992188 -14.320312 " clip-rule="nonzero"/></clipPath><clipPath id="06830673df"><rect x="0" width="32" y="0" height="19"/></clipPath><clipPath id="dfd3fba982"><path d="M 24 32 L 42 32 L 42 42 L 24 42 Z M 24 32 " clip-rule="nonzero"/></clipPath><clipPath id="a5a2bf6575"><path d="M -6.992188 10.679688 L 45.617188 -9.230469 L 60.484375 30.050781 L 7.875 49.960938 Z M -6.992188 10.679688 " clip-rule="nonzero"/></clipPath><clipPath id="e04f1f0a19"><path d="M -6.992188 10.679688 L 45.617188 -9.230469 L 60.484375 30.050781 L 7.875 49.960938 Z M -6.992188 10.679688 " clip-rule="nonzero"/></clipPath><mask id="b616c8a9d3"><g filter="url(#a866117b8e)"><rect x="-15" width="180" fill="#000000" y="-6" height="72" fill-opacity="0.15"/></g></mask><clipPath id="7a15341108"><path d="M 0.480469 1 L 17 1 L 17 8 L 0.480469 8 Z M 0.480469 1 " clip-rule="nonzero"/></clipPath><clipPath id="08c2da6a3a"><path d="M -30.992188 -21.320312 L 21.617188 -41.230469 L 36.484375 -1.949219 L -16.125 17.960938 Z M -30.992188 -21.320312 " clip-rule="nonzero"/></clipPath><clipPath id="2b33e9aca8"><path d="M -30.992188 -21.320312 L 21.617188 -41.230469 L 36.484375 -1.949219 L -16.125 17.960938 Z M -30.992188 -21.320312 " clip-rule="nonzero"/></clipPath><clipPath id="8d2d8b84b2"><rect x="0" width="18" y="0" height="10"/></clipPath><clipPath id="5a3ab1c6e2"><path d="M 8 0 L 34 0 L 34 12 L 8 12 Z M 8 0 " clip-rule="nonzero"/></clipPath><clipPath id="f53241530f"><path d="M -6.992188 10.679688 L 45.617188 -9.230469 L 60.484375 30.050781 L 7.875 49.960938 Z M -6.992188 10.679688 " clip-rule="nonzero"/></clipPath><clipPath id="02d356f6c3"><path d="M -6.992188 10.679688 L 45.617188 -9.230469 L 60.484375 30.050781 L 7.875 49.960938 Z M -6.992188 10.679688 " clip-rule="nonzero"/></clipPath><mask id="5b067b6d37"><g filter="url(#a866117b8e)"><rect x="-15" width="180" fill="#000000" y="-6" height="72" fill-opacity="0.07"/></g></mask><clipPath id="3378f4e32c"><path d="M 2 1 L 25.359375 1 L 25.359375 11.519531 L 2 11.519531 Z M 2 1 " clip-rule="nonzero"/></clipPath><clipPath id="f4bebc5fa2"><path d="M -14.992188 10.679688 L 37.617188 -9.230469 L 52.484375 30.050781 L -0.125 49.960938 Z M -14.992188 10.679688 " clip-rule="nonzero"/></clipPath><clipPath id="835760062b"><path d="M -14.992188 10.679688 L 37.617188 -9.230469 L 52.484375 30.050781 L -0.125 49.960938 Z M -14.992188 10.679688 " clip-rule="nonzero"/></clipPath><clipPath id="d66e1c3eaf"><rect x="0" width="26" y="0" height="12"/></clipPath><clipPath id="452264d173"><path d="M 0 9 L 54 9 L 54 34 L 0 34 Z M 0 9 " clip-rule="nonzero"/></clipPath><clipPath id="c41d318812"><path d="M -6.992188 10.679688 L 45.617188 -9.230469 L 60.484375 30.050781 L 7.875 49.960938 Z M -6.992188 10.679688 " clip-rule="nonzero"/></clipPath><clipPath id="837ed6a387"><path d="M -6.992188 10.679688 L 45.617188 -9.230469 L 60.484375 30.050781 L 7.875 49.960938 Z M -6.992188 10.679688 " clip-rule="nonzero"/></clipPath></defs><g clip-path="url(#94ce9bb6be)"><g clip-path="url(#5f0e005ee0)"><g clip-path="url(#15e742e091)"><path fill="#22b8cf" d="M 44.453125 13.769531 C 45.25 15.875 45.644531 18.03125 45.683594 20.140625 C 45.714844 22.175781 45.414062 24.191406 44.828125 26.082031 C 44.808594 26.148438 44.777344 26.21875 44.761719 26.289062 C 43.953125 28.761719 42.640625 31.0625 40.898438 33.027344 C 38.945312 35.230469 36.429688 37.003906 33.480469 38.121094 C 30.527344 39.238281 27.488281 39.566406 24.546875 39.214844 C 21.941406 38.898438 19.4375 38.058594 17.1875 36.726562 C 17.132812 36.6875 17.0625 36.65625 17.003906 36.613281 C 15.289062 35.574219 13.734375 34.277344 12.425781 32.726562 C 11.046875 31.105469 9.925781 29.246094 9.128906 27.136719 C 8.871094 26.453125 8.652344 25.773438 8.476562 25.097656 C 8.453125 24.992188 8.410156 24.882812 8.394531 24.773438 C 8.214844 24.035156 8.09375 23.300781 8.003906 22.574219 C 7.75 20.484375 7.875 18.371094 8.324219 16.378906 C 8.71875 14.609375 9.359375 12.921875 10.230469 11.34375 C 12.351562 7.527344 15.738281 4.445312 20.105469 2.789062 C 24.476562 1.136719 29.054688 1.207031 33.132812 2.671875 C 34.828125 3.277344 36.4375 4.128906 37.898438 5.179688 C 39.5625 6.394531 41.042969 7.878906 42.257812 9.605469 C 42.683594 10.207031 43.066406 10.84375 43.417969 11.511719 C 43.472656 11.609375 43.511719 11.714844 43.574219 11.8125 C 43.90625 12.429688 44.195312 13.085938 44.453125 13.769531 Z M 44.453125 13.769531 " fill-opacity="1" fill-rule="nonzero"/></g></g></g><g clip-path="url(#8ddee1e8ac)"><g clip-path="url(#1d908a3167)"><g clip-path="url(#a5a1d46657)"><g mask="url(#be46f05434)"><g transform="matrix(1, 0, 0, 1, 2, -0.000000000000001479)"><g clip-path="url(#6c083a08d7)"><g clip-path="url(#3b2d9f3403)"><g clip-path="url(#e82d471208)"><g clip-path="url(#a43739460b)"><path fill="#000000" d="M 40.261719 9.621094 L 6.027344 22.578125 C 5.777344 20.488281 5.898438 18.375 6.347656 16.382812 C 6.742188 14.613281 7.382812 12.921875 8.257812 11.347656 C 10.351562 7.527344 13.738281 4.445312 18.105469 2.789062 C 22.476562 1.136719 27.054688 1.207031 31.132812 2.671875 C 32.828125 3.277344 34.4375 4.128906 35.898438 5.179688 C 37.578125 6.390625 39.042969 7.878906 40.261719 9.621094 Z M 40.261719 9.621094 " fill-opacity="1" fill-rule="nonzero"/></g></g></g></g></g></g></g></g></g><g clip-path="url(#5dca59dfdd)"><g clip-path="url(#2c3ee91f8e)"><g clip-path="url(#7dbdf2eeab)"><g mask="url(#cce49deb15)"><g transform="matrix(1, 0, 0, 1, 12, 19)"><g clip-path="url(#54d306f794)"><g clip-path="url(#ff927c655e)"><g clip-path="url(#35c0cba62a)"><g clip-path="url(#ffa4ef0f70)"><path fill="#000000" d="M 33.683594 1.140625 C 33.714844 3.175781 33.414062 5.191406 32.828125 7.082031 C 32.808594 7.148438 32.777344 7.21875 32.761719 7.289062 C 31.953125 9.761719 30.640625 12.0625 28.898438 14.027344 C 26.945312 16.230469 24.429688 18.003906 21.480469 19.121094 C 18.527344 20.238281 15.488281 20.566406 12.546875 20.214844 C 9.941406 19.898438 7.4375 19.058594 5.1875 17.726562 C 5.132812 17.6875 5.0625 17.65625 5.003906 17.613281 C 3.289062 16.574219 1.734375 15.277344 0.425781 13.726562 Z M 33.683594 1.140625 " fill-opacity="1" fill-rule="nonzero"/></g></g></g></g></g></g></g></g></g><g clip-path="url(#0027d9e5da)"><g clip-path="url(#5434ef03df)"><g clip-path="url(#2f64478e62)"><g mask="url(#f3d967c20a)"><g transform="matrix(1, 0, 0, 1, 16, 25)"><g clip-path="url(#06830673df)"><g clip-path="url(#ba7b249e55)"><g clip-path="url(#b369aaf3da)"><g clip-path="url(#04684fcdeb)"><path fill="#000000" d="M 28.804688 1.089844 C 28.789062 1.15625 28.757812 1.226562 28.742188 1.296875 C 27.933594 3.769531 26.621094 6.070312 24.878906 8.035156 C 22.925781 10.238281 20.40625 12.011719 17.457031 13.128906 C 14.507812 14.246094 11.464844 14.574219 8.523438 14.222656 C 5.917969 13.90625 3.417969 13.066406 1.167969 11.734375 C 1.113281 11.695312 1.039062 11.664062 0.984375 11.621094 Z M 28.804688 1.089844 " fill-opacity="1" fill-rule="nonzero"/></g></g></g></g></g></g></g></g></g><g clip-path="url(#dfd3fba982)"><g clip-path="url(#a5a2bf6575)"><g clip-path="url(#e04f1f0a19)"><g mask="url(#b616c8a9d3)"><g transform="matrix(1, 0, 0, 1, 24, 32)"><g clip-path="url(#8d2d8b84b2)"><g clip-path="url(#7a15341108)"><g clip-path="url(#08c2da6a3a)"><g clip-path="url(#2b33e9aca8)"><path fill="#000000" d="M 16.894531 1.023438 C 14.945312 3.222656 12.425781 5 9.476562 6.117188 C 6.527344 7.230469 3.484375 7.5625 0.542969 7.210938 Z M 16.894531 1.023438 " fill-opacity="1" fill-rule="nonzero"/></g></g></g></g></g></g></g></g></g><g clip-path="url(#5a3ab1c6e2)"><g clip-path="url(#f53241530f)"><g clip-path="url(#02d356f6c3)"><g mask="url(#5b067b6d37)"><g transform="matrix(1, 0, 0, 1, 8, -0.000000000000001479)"><g clip-path="url(#d66e1c3eaf)"><g clip-path="url(#3378f4e32c)"><g clip-path="url(#f4bebc5fa2)"><g clip-path="url(#835760062b)"><path fill="#000000" d="M 25.132812 2.671875 L 2.265625 11.328125 C 4.351562 7.527344 7.738281 4.445312 12.105469 2.789062 C 16.476562 1.136719 21.070312 1.203125 25.132812 2.671875 Z M 25.132812 2.671875 " fill-opacity="1" fill-rule="nonzero"/></g></g></g></g></g></g></g></g></g><g clip-path="url(#452264d173)"><g clip-path="url(#c41d318812)"><g clip-path="url(#837ed6a387)"><path fill="#a2e536" d="M 53.308594 11.039062 C 54.09375 13.070312 51.054688 16.324219 45.660156 19.769531 C 41.476562 22.433594 35.878906 25.234375 29.554688 27.648438 C 23.21875 30.089844 17.191406 31.746094 12.304688 32.558594 C 5.976562 33.605469 1.558594 33.210938 0.773438 31.183594 C 0.0078125 29.203125 2.878906 26.054688 8.03125 22.699219 C 8.125 23.46875 8.269531 24.230469 8.464844 25.003906 C 7.460938 25.90625 7.003906 26.660156 7.203125 27.183594 C 7.394531 27.695312 8.195312 27.957031 9.460938 27.953125 C 12.949219 27.996094 20.03125 26.261719 27.859375 23.257812 C 35.6875 20.253906 42.125 16.816406 44.675781 14.449219 C 45.617188 13.59375 46.027344 12.875 45.832031 12.363281 C 45.632812 11.839844 44.78125 11.601562 43.433594 11.585938 C 43.070312 10.882812 42.660156 10.21875 42.210938 9.582031 C 48.3125 8.636719 52.542969 9.0625 53.308594 11.039062 Z M 53.308594 11.039062 " fill-opacity="1" fill-rule="nonzero"/></g></g></g><g fill="#ffffff" fill-opacity="1"><g transform="translate(17.488969, 46.844055)"><g><path d="M 31.4375 -18.578125 C 31.4375 -16.285156 30.773438 -14.445312 29.453125 -13.0625 C 28.128906 -11.675781 26.222656 -10.984375 23.734375 -10.984375 L 9.3125 -10.984375 C 6.820312 -10.984375 4.910156 -11.675781 3.578125 -13.0625 C 2.253906 -14.445312 1.59375 -16.285156 1.59375 -18.578125 C 1.59375 -20.898438 2.253906 -22.75 3.578125 -24.125 C 4.910156 -25.5 6.820312 -26.1875 9.3125 -26.1875 L 23.734375 -26.1875 C 26.222656 -26.1875 28.128906 -25.5 29.453125 -24.125 C 30.773438 -22.75 31.4375 -20.898438 31.4375 -18.578125 Z M 16.515625 -11.328125 C 16.515625 -12.492188 17.019531 -13.617188 18.03125 -14.703125 C 19.039062 -15.796875 20.539062 -16.703125 22.53125 -17.421875 C 24.519531 -18.148438 26.992188 -18.535156 29.953125 -18.578125 C 26.992188 -18.648438 24.519531 -19.039062 22.53125 -19.75 C 20.539062 -20.46875 19.039062 -21.367188 18.03125 -22.453125 C 17.019531 -23.546875 16.515625 -24.671875 16.515625 -25.828125 C 16.515625 -24.671875 16.007812 -23.546875 15 -22.453125 C 14 -21.367188 12.5 -20.46875 10.5 -19.75 C 8.5 -19.039062 6.019531 -18.648438 3.0625 -18.578125 C 6.019531 -18.535156 8.5 -18.148438 10.5 -17.421875 C 12.5 -16.703125 14 -15.796875 15 -14.703125 C 16.007812 -13.617188 16.515625 -12.492188 16.515625 -11.328125 Z M 1.78125 -3.84375 L 1.78125 -9.34375 L 31.265625 -9.34375 L 31.265625 -3.84375 L 20.25 -3.84375 L 20.25 3.875 L 12.796875 3.875 L 12.796875 -3.84375 Z M 1.78125 -3.84375 "/></g></g></g><g fill="#ffffff" fill-opacity="1"><g transform="translate(50.516296, 46.844055)"><g><path d="M 1.78125 -20.671875 L 1.78125 -26.1875 L 31.265625 -26.1875 L 31.265625 -20.671875 L 24.265625 -20.671875 L 31.265625 -10.84375 L 23.09375 -10.84375 L 16.515625 -20.71875 L 9.953125 -10.84375 L 1.78125 -10.84375 L 8.78125 -20.671875 Z M 1.78125 -3.84375 L 1.78125 -9.34375 L 31.265625 -9.34375 L 31.265625 -3.84375 L 20.25 -3.84375 L 20.25 3.875 L 12.796875 3.875 L 12.796875 -3.84375 Z M 1.78125 -3.84375 "/></g></g></g><g fill="#ffffff" fill-opacity="1"><g transform="translate(83.543623, 46.844055)"><g><path d="M 22.5625 -20.609375 C 22.5625 -19.023438 22.046875 -17.707031 21.015625 -16.65625 C 19.984375 -15.613281 18.398438 -15.09375 16.265625 -15.09375 L 7.890625 -15.09375 C 5.753906 -15.09375 4.171875 -15.613281 3.140625 -16.65625 C 2.109375 -17.707031 1.59375 -19.023438 1.59375 -20.609375 C 1.59375 -22.222656 2.109375 -23.554688 3.140625 -24.609375 C 4.171875 -25.660156 5.753906 -26.1875 7.890625 -26.1875 L 16.265625 -26.1875 C 18.398438 -26.1875 19.984375 -25.660156 21.015625 -24.609375 C 22.046875 -23.554688 22.5625 -22.222656 22.5625 -20.609375 Z M 24.15625 -5.109375 L 24.15625 -26.1875 L 31.265625 -26.1875 L 31.265625 -5.109375 Z M 12.078125 -24.84375 C 12.035156 -24.007812 11.648438 -23.273438 10.921875 -22.640625 C 10.203125 -22.015625 9.257812 -21.523438 8.09375 -21.171875 C 6.9375 -20.816406 5.671875 -20.628906 4.296875 -20.609375 C 5.722656 -20.585938 7.019531 -20.390625 8.1875 -20.015625 C 9.363281 -19.648438 10.304688 -19.144531 11.015625 -18.5 C 11.722656 -17.863281 12.078125 -17.109375 12.078125 -16.234375 C 12.078125 -17.109375 12.429688 -17.867188 13.140625 -18.515625 C 13.859375 -19.171875 14.804688 -19.679688 15.984375 -20.046875 C 17.171875 -20.421875 18.460938 -20.617188 19.859375 -20.640625 C 18.484375 -20.660156 17.210938 -20.84375 16.046875 -21.1875 C 14.890625 -21.53125 13.957031 -22.015625 13.25 -22.640625 C 12.539062 -23.273438 12.148438 -24.007812 12.078125 -24.84375 Z M 1.78125 -9.125 L 1.78125 -14.109375 L 22.734375 -14.109375 L 22.734375 -9.125 L 15.8125 -9.125 L 15.8125 -6 L 8.34375 -6 L 8.34375 -9.125 Z M 0.359375 3.875 L 12.796875 -5.265625 L 20.25 -5.265625 L 32.6875 3.875 L 23.09375 3.875 L 16.515625 -0.859375 L 9.953125 3.875 Z M 0.359375 3.875 "/></g></g></g><g fill="#ffffff" fill-opacity="1"><g transform="translate(116.57095, 46.844055)"><g><path d="M 1.78125 3.875 L 1.78125 -26.1875 L 21.671875 -26.1875 L 21.671875 3.875 Z M 24.15625 3.875 L 24.15625 -26.1875 L 31.265625 -26.1875 L 31.265625 3.875 Z M 11.71875 -25.40625 C 11.71875 -22.800781 11.445312 -20.59375 10.90625 -18.78125 C 10.363281 -16.96875 9.640625 -15.507812 8.734375 -14.40625 C 7.835938 -13.300781 6.84375 -12.488281 5.75 -11.96875 C 4.664062 -11.445312 3.585938 -11.164062 2.515625 -11.125 C 3.585938 -11.070312 4.664062 -10.789062 5.75 -10.28125 C 6.84375 -9.769531 7.835938 -8.957031 8.734375 -7.84375 C 9.640625 -6.738281 10.363281 -5.289062 10.90625 -3.5 C 11.445312 -1.707031 11.71875 0.488281 11.71875 3.09375 C 11.71875 0.488281 11.988281 -1.710938 12.53125 -3.515625 C 13.082031 -5.316406 13.800781 -6.765625 14.6875 -7.859375 C 15.582031 -8.960938 16.570312 -9.773438 17.65625 -10.296875 C 18.75 -10.816406 19.828125 -11.101562 20.890625 -11.15625 C 19.828125 -11.207031 18.75 -11.484375 17.65625 -11.984375 C 16.570312 -12.492188 15.582031 -13.304688 14.6875 -14.421875 C 13.800781 -15.535156 13.082031 -16.992188 12.53125 -18.796875 C 11.988281 -20.597656 11.71875 -22.800781 11.71875 -25.40625 Z M 11.71875 -25.40625 "/></g></g></g></svg>