<svg width="16" height="16" viewBox="0 0 16 16" fill="none" xmlns="http://www.w3.org/2000/svg">
<path fill-rule="evenodd" clip-rule="evenodd" d="M9.90259 1.65552C8.88647 0.781494 7.38354 0.781494 6.36743 1.65552C5.92896 2.03345 5.38062 2.2605 4.80298 2.30347C3.46655 2.40405 2.40405 3.46655 2.30347 4.80298C2.2605 5.38062 2.03345 5.92896 1.65552 6.36743C0.781494 7.38354 0.781494 8.88647 1.65552 9.90259C2.03345 10.3411 2.2605 10.8894 2.30347 11.467C2.40405 12.8035 3.46655 13.866 4.80298 13.9666C5.38062 14.0095 5.92896 14.2366 6.36743 14.6145C7.38354 15.4885 8.88647 15.4885 9.90259 14.6145C10.3411 14.2366 10.8894 14.0095 11.467 13.9666C12.8035 13.866 13.866 12.8035 13.9666 11.467C14.0095 10.8894 14.2366 10.3411 14.6145 9.90259C15.4885 8.88647 15.4885 7.38354 14.6145 6.36743C14.4636 6.19214 14.3367 5.99927 14.2361 5.79419C14.0847 5.48608 13.9924 5.14966 13.9666 4.80298C13.866 3.46655 12.8035 2.40405 11.467 2.30347C10.8894 2.2605 10.3411 2.03345 9.90259 1.65552ZM11.6926 6.63696C11.9695 6.32886 11.9446 5.85474 11.637 5.57739C11.3289 5.30054 10.8547 5.32544 10.5774 5.63306L7.46069 9.09644L5.61499 7.55884C5.29712 7.2937 4.82397 7.33667 4.55884 7.65503C4.2937 7.9729 4.33667 8.44604 4.65503 8.71118L6.90698 10.5881C7.29907 10.9148 7.87964 10.8733 8.22144 10.4934L11.6926 6.63696Z" fill="#64748B"/>
</svg>
