<svg width="16" height="16" viewBox="0 0 16 16" fill="none" xmlns="http://www.w3.org/2000/svg">
<path fill-rule="evenodd" clip-rule="evenodd" d="M8 15C11.866 15 15 11.866 15 8C15 4.13401 11.866 1 8 1C4.13401 1 1 4.13401 1 8C1 11.866 4.13401 15 8 15ZM8.00059 2.9668C8.29517 2.9668 8.53397 3.2056 8.53397 3.50018V7.46662H11.5002C11.7948 7.46662 12.0336 7.70542 12.0336 8C12.0336 8.29458 11.7948 8.53338 11.5002 8.53338H8.02681C8.01813 8.5338 8.00939 8.53401 8.00059 8.53401C7.80088 8.53401 7.62681 8.42425 7.5354 8.26177C7.49176 8.18444 7.46686 8.09513 7.46686 8C7.46686 7.99342 7.46698 7.98687 7.46721 7.98035V3.50018C7.46721 3.2056 7.70602 2.9668 8.00059 2.9668Z" fill="#64748B"/>
</svg>
