<svg width="16" height="16" viewBox="0 0 16 16" fill="none" xmlns="http://www.w3.org/2000/svg">
<path fill-rule="evenodd" clip-rule="evenodd" d="M2 6.93268C2 5.43921 2 4.69247 2.29065 4.12204C2.54631 3.62028 2.95426 3.21233 3.45603 2.95666C4.02646 2.66602 4.77319 2.66602 6.26667 2.66602H9.73333C11.2268 2.66602 11.9735 2.66602 12.544 2.95666C13.0457 3.21233 13.4537 3.62028 13.7094 4.12204C14 4.69247 14 5.43921 14 6.93268V7.73268C14 9.22615 14 9.97289 13.7094 10.5433C13.4537 11.0451 13.0457 11.453 12.544 11.7087C11.9735 11.9993 11.2268 11.9993 9.73333 11.9993H4.94281C4.766 11.9993 4.59643 12.0696 4.4714 12.1946L3.13807 13.5279C2.7181 13.9479 2 13.6505 2 13.0565V11.9993V8.66602V6.93268ZM6 5.33301C5.63181 5.33301 5.33333 5.63148 5.33333 5.99967C5.33333 6.36786 5.63181 6.66634 6 6.66634H10C10.3682 6.66634 10.6667 6.36786 10.6667 5.99967C10.6667 5.63148 10.3682 5.33301 10 5.33301H6ZM6 7.99967C5.63181 7.99967 5.33333 8.29815 5.33333 8.66634C5.33333 9.03453 5.63181 9.33301 6 9.33301H8C8.36819 9.33301 8.66667 9.03453 8.66667 8.66634C8.66667 8.29815 8.36819 7.99967 8 7.99967H6Z" fill="#64748B"/>
</svg>
