<svg width="66" height="66" viewBox="0 0 66 66" fill="none" xmlns="http://www.w3.org/2000/svg">
<circle cx="32" cy="32" r="32" fill="#1E293B"/>
<circle cx="32" cy="32" r="31" stroke="#F8FAFC" stroke-opacity="0.1" stroke-width="2"/>
<circle cx="55" cy="55" r="10" fill="#334155" stroke="#0F172A" stroke-width="2"/>
<path d="M55.0118 51.1895C55.1164 50.964 55.3836 50.8668 55.6086 50.9723L57.5454 51.8803C57.7705 51.9858 57.8681 52.2541 57.7635 52.4795L55.0823 58.2603C55.0314 58.3701 54.9385 58.4546 54.8245 58.4947L53.4156 58.9904C53.1852 59.0714 52.932 58.9527 52.8456 58.7231L52.3177 57.3195C52.275 57.2059 52.2796 57.0801 52.3306 56.9703L55.0118 51.1895Z" fill="#64748B"/>
<path d="M53.127 51.3806L58.4906 53.8971" stroke="#334155" stroke-width="0.5625"/>
<path fill-rule="evenodd" clip-rule="evenodd" d="M34.23 22H30C25.5817 22 22 25.5817 22 30V34.24C22 38.6583 25.5817 42.24 30 42.24H34.23C38.6483 42.24 42.23 38.6583 42.23 34.24V30C42.23 25.5817 38.6483 22 34.23 22ZM28.12 26.12C29.2246 26.12 30.12 27.0154 30.12 28.12C30.12 29.2246 29.2246 30.12 28.12 30.12C27.0154 30.12 26.12 29.2246 26.12 28.12C26.12 27.0154 27.0154 26.12 28.12 26.12ZM35.51 40.12C38.3411 39.0627 40.2212 36.3621 40.23 33.34L40.2 31.62C40.2 31.21 40.12 30.44 40.12 30.44H38.49C34.7164 30.4515 31.2706 32.5862 29.58 35.96C28.3529 34.863 26.7659 34.2546 25.12 34.25H23.91C23.8207 36.5747 25.0834 38.7415 27.15 39.81C27.8888 40.2036 28.7129 40.4096 29.55 40.41H33.72C34.329 40.4187 34.9349 40.3206 35.51 40.12Z" fill="#64748B"/>
</svg>
