<svg width="24" height="24" viewBox="0 0 24 24" fill="none" xmlns="http://www.w3.org/2000/svg">
<path d="M12.0031 15.5769C13.1362 15.5769 14.0985 15.1803 14.8902 14.3871C15.6819 13.5939 16.0777 12.6308 16.0777 11.4977C16.0777 10.3646 15.6811 9.40224 14.888 8.61058C14.0948 7.81891 13.1316 7.42308 11.9985 7.42308C10.8655 7.42308 9.90308 7.81966 9.11141 8.61282C8.31975 9.40601 7.92391 10.3692 7.92391 11.5023C7.92391 12.6353 8.3205 13.5977 9.11366 14.3894C9.90685 15.181 10.87 15.5769 12.0031 15.5769ZM12.0008 14.2C11.2508 14.2 10.6133 13.9375 10.0883 13.4125C9.56331 12.8875 9.30081 12.25 9.30081 11.5C9.30081 10.75 9.56331 10.1125 10.0883 9.58748C10.6133 9.06248 11.2508 8.79998 12.0008 8.79998C12.7508 8.79998 13.3883 9.06248 13.9133 9.58748C14.4383 10.1125 14.7008 10.75 14.7008 11.5C14.7008 12.25 14.4383 12.8875 13.9133 13.4125C13.3883 13.9375 12.7508 14.2 12.0008 14.2ZM12.0008 18.5C9.8957 18.5 7.97039 17.9384 6.22489 16.8153C4.47937 15.6923 3.0861 14.2147 2.04509 12.3827C1.96175 12.2391 1.90085 12.0944 1.86239 11.9485C1.82392 11.8027 1.80469 11.653 1.80469 11.4995C1.80469 11.346 1.82392 11.1965 1.86239 11.051C1.90085 10.9054 1.96175 10.7609 2.04509 10.6173C3.0861 8.78525 4.47937 7.30769 6.22489 6.18463C7.97039 5.06154 9.8957 4.5 12.0008 4.5C14.1059 4.5 16.0312 5.06154 17.7767 6.18463C19.5223 7.30769 20.9155 8.78525 21.9565 10.6173C22.0399 10.7609 22.1008 10.9056 22.1392 11.0514C22.1777 11.1973 22.1969 11.347 22.1969 11.5005C22.1969 11.654 22.1777 11.8035 22.1392 11.949C22.1008 12.0945 22.0399 12.2391 21.9565 12.3827C20.9155 14.2147 19.5223 15.6923 17.7767 16.8153C16.0312 17.9384 14.1059 18.5 12.0008 18.5ZM12.0008 17C13.8841 17 15.6133 16.5041 17.1883 15.5125C18.7633 14.5208 19.9675 13.1833 20.8008 11.5C19.9675 9.81664 18.7633 8.47914 17.1883 7.48748C15.6133 6.49581 13.8841 5.99998 12.0008 5.99998C10.1175 5.99998 8.38831 6.49581 6.81331 7.48748C5.23831 8.47914 4.03415 9.81664 3.20081 11.5C4.03415 13.1833 5.23831 14.5208 6.81331 15.5125C8.38831 16.5041 10.1175 17 12.0008 17Z" fill="#64748B"/>
</svg>
