<svg width="24" height="24" viewBox="0 0 24 24" fill="none" xmlns="http://www.w3.org/2000/svg">
<path d="M13.8744 22H10.1244C9.87436 22 9.65769 21.9167 9.47436 21.75C9.29103 21.5833 9.18269 21.375 9.14936 21.125L8.84936 18.8C8.63269 18.7167 8.42869 18.6167 8.23736 18.5C8.04536 18.3833 7.85769 18.2583 7.67436 18.125L5.49936 19.025C5.26603 19.1083 5.03269 19.1167 4.79936 19.05C4.56603 18.9833 4.38269 18.8417 4.24936 18.625L2.39936 15.4C2.26603 15.1833 2.22436 14.95 2.27436 14.7C2.32436 14.45 2.44936 14.25 2.64936 14.1L4.52436 12.675C4.50769 12.5583 4.49936 12.4457 4.49936 12.337V11.662C4.49936 11.554 4.50769 11.4417 4.52436 11.325L2.64936 9.9C2.44936 9.75 2.32436 9.55 2.27436 9.3C2.22436 9.05 2.26603 8.81667 2.39936 8.6L4.24936 5.375C4.36603 5.14167 4.54503 4.99567 4.78636 4.937C5.02836 4.879 5.26603 4.89167 5.49936 4.975L7.67436 5.875C7.85769 5.74167 8.04936 5.61667 8.24936 5.5C8.44936 5.38333 8.64936 5.28333 8.84936 5.2L9.14936 2.875C9.18269 2.625 9.29103 2.41667 9.47436 2.25C9.65769 2.08333 9.87436 2 10.1244 2H13.8744C14.1244 2 14.341 2.08333 14.5244 2.25C14.7077 2.41667 14.816 2.625 14.8494 2.875L15.1494 5.2C15.366 5.28333 15.5704 5.38333 15.7624 5.5C15.9537 5.61667 16.141 5.74167 16.3244 5.875L18.4994 4.975C18.7327 4.89167 18.966 4.88333 19.1994 4.95C19.4327 5.01667 19.616 5.15833 19.7494 5.375L21.5994 8.6C21.7327 8.81667 21.7744 9.05 21.7244 9.3C21.6744 9.55 21.5494 9.75 21.3494 9.9L19.4744 11.325C19.491 11.4417 19.4994 11.554 19.4994 11.662V12.337C19.4994 12.4457 19.4827 12.5583 19.4494 12.675L21.3244 14.1C21.5244 14.25 21.6494 14.45 21.6994 14.7C21.7494 14.95 21.7077 15.1833 21.5744 15.4L19.7244 18.6C19.591 18.8167 19.4037 18.9627 19.1624 19.038C18.9204 19.1127 18.6827 19.1083 18.4494 19.025L16.3244 18.125C16.141 18.2583 15.9494 18.3833 15.7494 18.5C15.5494 18.6167 15.3494 18.7167 15.1494 18.8L14.8494 21.125C14.816 21.375 14.7077 21.5833 14.5244 21.75C14.341 21.9167 14.1244 22 13.8744 22ZM12.0494 15.5C13.016 15.5 13.841 15.1583 14.5244 14.475C15.2077 13.7917 15.5494 12.9667 15.5494 12C15.5494 11.0333 15.2077 10.2083 14.5244 9.525C13.841 8.84167 13.016 8.5 12.0494 8.5C11.066 8.5 10.2367 8.84167 9.56136 9.525C8.88669 10.2083 8.54936 11.0333 8.54936 12C8.54936 12.9667 8.88669 13.7917 9.56136 14.475C10.2367 15.1583 11.066 15.5 12.0494 15.5Z" fill="#F8FAFC"/>
</svg>
