<svg width="12" height="12" viewBox="0 0 12 12" fill="none" xmlns="http://www.w3.org/2000/svg">
<path fill-rule="evenodd" clip-rule="evenodd" d="M8.45 1.785H8.5C9.88071 1.785 11 2.90429 11 4.285V8.785C11 10.1657 9.88071 11.285 8.5 11.285H3.5C2.83696 11.285 2.20107 11.0216 1.73223 10.5528C1.26339 10.0839 1 9.44804 1 8.785V4.285C1 2.90429 2.11929 1.785 3.5 1.785H3.55V0.875C3.55 0.667893 3.71789 0.5 3.925 0.5C4.13211 0.5 4.3 0.667893 4.3 0.875V1.785H7.7V0.875C7.7 0.667893 7.86789 0.5 8.075 0.5C8.28211 0.5 8.45 0.667893 8.45 0.875V1.785ZM3.75 4.83H8.25C8.45711 4.83 8.625 4.66211 8.625 4.455C8.625 4.24789 8.45711 4.08 8.25 4.08H3.75C3.54289 4.08 3.375 4.24789 3.375 4.455C3.375 4.66211 3.54289 4.83 3.75 4.83Z" fill="#64748B"/>
</svg>
